# xmcd
#
# Track frame offsets:
#	150
#	17812
#	35740
#	52075
#	68032
#	86052
#	105020
#	120557
#	135467
#	150547
#	171570
#	190082
#
# Disc length: 2855 seconds
#
# Revision: 2
# Processed by: cddbd v1.4b41PL1 Copyright (c) Steve Scherf et al.
# Submitted via: EZCDDA 4.3.2
#
DISCID=9b0b250c
DTITLE=CAÇA-NÍQUEIS
DYEAR=1900
DGENRE=
TTITLE0=120/100/160
TTITLE1=PARE DE ME PERGUNTAR
TTITLE2=TEQUILA, SEX, ROCK
TTITLE3=HEY VOCÊ!
TTITLE4=GRETCHEN MIX
TTITLE5=RABO DURO
TTITLE6=HIDDEN' SMILES
TTITLE7=LEI SECA
TTITLE8=PELADO NO BAR
TTITLE9=GARÇON
TTITLE10=ABUTRES
TTITLE11=120/100/160(EXTENDED)
EXTD=
EXTT0=
EXTT1=
EXTT2=
EXTT3=
EXTT4=
EXTT5=
EXTT6=
EXTT7=
EXTT8=
EXTT9=
EXTT10=
EXTT11=
PLAYORDER=
